<?xml version="1.0" encoding="utf-8"?>
<!-- Generator: Adobe Illustrator 21.0.0, SVG Export Plug-In . SVG Version: 6.00 Build 0)  By Mask 18-8-8-->
<svg version="1.1" id="zhs.fun" xmlns="http://www.w3.org/2000/svg" xmlns:xlink="http://www.w3.org/1999/xlink" x="0px" y="0px"
	 viewBox="0 0 300 40" style="enable-background:new 0 0 300 40;" xml:space="preserve">
<style type="text/css">
	.st0{fill:#324150;}
	.st1{fill:#394856;}
	.st2{fill:#404E5C;}
</style>
<g>
	<path class="st0" d="M0,26.2C0,17.6,0,8.9,0,0.3C0,0.1,0.1,0,0.4,0c99.8,0,199.5,0,299.3,0c0.3,0,0.4,0.1,0.4,0.3
		c0,5.6,0,11.2,0,16.8c-0.1,0.2-0.3,0.4-0.6,0.5c-8.1,4.3-16.2,8.7-24.3,13c-0.5,0.3-0.6,0.3-1.1,0c-4.1-2.6-8.1-5.2-12.2-7.8
		c-0.6-0.4-1.3-0.8-1.9-1.2c-0.4-0.3-0.6-0.3-1,0c-4.6,2.9-9.2,5.9-13.7,8.8c-0.3,0.2-0.5,0.4-0.9,0.5c-0.2,0.1-0.3,0-0.4,0
		c-0.9-0.5-1.7-1-2.6-1.5c-0.8-0.6-1.7-1.1-2.6-1.6c-1.6-0.9-3.2-1.9-4.8-2.8c-4-2.3-8-4.7-11.9-7c-3.3-1.9-6.6-3.9-9.9-5.8
		c-0.1-0.1-0.3-0.2-0.4-0.3c-0.2-0.2-0.4-0.3-0.6-0.2c-0.2,0-0.4,0.1-0.6,0.2c-4.2,2.1-8.5,4.2-12.7,6.4c-5.2,2.6-10.4,5.3-15.6,7.9
		c-5,2.5-10,5-14.9,7.5c-1.4,0.7-2.8,1.4-4.2,2.1c-0.1,0.1-0.3,0.2-0.5,0.1c-0.5-0.3-1-0.5-1.5-0.7c-7.1-3.2-14.1-6.5-21.1-9.7
		c-6.2-2.9-12.4-5.7-18.6-8.6c-0.2-0.1-0.4-0.4-0.8-0.3c-0.3,0-0.6,0.2-0.8,0.3c-4.5,2.4-9,4.8-13.5,7.3c-4.1,2.2-8.1,4.3-12.2,6.5
		c-0.1,0.1-0.2,0.1-0.3,0.2c-0.4,0.2-0.5,0.2-0.9,0c-2.2-1.4-4.4-2.8-6.5-4.2c-1.9-1.2-3.8-2.4-5.7-3.6c-0.6-0.4-1.3-0.8-1.9-1.2
		c-0.4-0.3-0.6-0.3-1,0c-4.7,3-9.3,6-14,9c-0.1,0-0.1,0.1-0.2,0.1c-0.4,0.2-0.6,0.2-1,0c-0.8-0.5-1.6-0.9-2.4-1.4
		c-0.8-0.6-1.7-1.1-2.6-1.6c-1.6-0.9-3.2-1.9-4.8-2.8c-4-2.3-8-4.7-11.9-7c-3.3-1.9-6.6-3.9-9.9-5.8c-0.1-0.1-0.3-0.2-0.4-0.3
		c-0.2-0.2-0.4-0.3-0.6-0.2c-0.2,0-0.4,0.1-0.6,0.2c-4.5,2.3-9.1,4.6-13.6,6.8c-5,2.5-10,5-15,7.5C0.4,26.2,0.2,26.4,0,26.2z"/>
	<path class="st1" d="M162.6,35.5c0.2,0,0.4-0.1,0.5-0.2c4.6-2.3,9.1-4.6,13.7-6.9c5-2.5,9.9-5,14.9-7.5c4.8-2.4,9.6-4.8,14.4-7.3
		c1.5-0.8,3-1.5,4.5-2.3c0.1-0.1,0.3-0.2,0.5-0.1c1,0.8,1.6,1.9,2.3,2.8c1.6,2.2,3.3,4.5,4.9,6.7c2.8,3.9,5.6,7.8,8.4,11.6
		c1.7,2.3,3.4,4.6,5,7c0.1,0.1,0.4,0.3,0.1,0.5c-26.2,0-52.4,0-78.6,0c-0.2-0.2,0-0.3,0.2-0.3c1-0.5,2.1-1,3.1-1.4
		c1.7-0.8,3.4-1.6,5.1-2.4C162,35.7,162.3,35.6,162.6,35.5z"/>
	<path class="st1" d="M60.1,29.1c0.8,0.4,1.5,0.9,2.3,1.3c0.6,0.3,0.5,0.3,1.1,0c4.7-3,9.4-6,14-9c0.5-0.3,0.5-0.3,1.1,0
		c4.7,3,9.4,6,14.1,9.1c0.5,0.3,0.5,0.3,1,0c8.7-4.7,17.4-9.3,26.2-14c0.2-0.1,0.3-0.2,0.6-0.2c0.6,0.5,0.9,1.2,1.3,1.8
		c0.7,1.1,1.3,2.3,2,3.4c1.8,3.1,3.6,6.1,5.4,9.2c0.9,1.5,1.8,3.1,2.7,4.6c0.9,1.5,1.7,3,2.6,4.4c0.1,0.1,0.2,0.3,0,0.4
		c-18.7,0-37.3,0-56,0c-0.4-0.1-0.8-0.3-1.1-0.5c-5.2-3.1-10.4-6.1-15.6-9.2c-0.5-0.3-1.1-0.6-1.6-0.9
		C60.1,29.3,59.9,29.3,60.1,29.1z"/>
	<path class="st1" d="M0,26.2c0.8-0.3,1.5-0.7,2.3-1.1c4.1-2,8.1-4.1,12.2-6.1c4.9-2.5,9.9-5,14.8-7.5c0.2-0.1,0.3-0.2,0.6-0.2
		c1,0.8,1.6,1.9,2.3,2.8c1.6,2.2,3.3,4.5,4.9,6.7c2.8,3.9,5.6,7.8,8.4,11.6c1.7,2.3,3.4,4.6,5,7c0.1,0.1,0.4,0.3,0.1,0.5
		c-16.7,0-33.4,0-50.2,0C0.1,40,0,39.9,0,39.7C0,35.2,0,30.7,0,26.2z"/>
	<path class="st1" d="M241.5,29.1c0.8,0.4,1.5,0.9,2.3,1.3c0.6,0.3,0.5,0.3,1.1,0c4.7-3,9.4-6,14-9c0.5-0.4,0.5-0.4,1.1,0
		c4.7,3,9.4,6.1,14.1,9.1c0.4,0.2,0.6,0.2,0.9,0c8.1-4.3,16.2-8.7,24.3-13c0.2-0.1,0.4-0.2,0.6-0.3c0,7.5,0,15.1,0,22.6
		c0,0.2-0.1,0.3-0.3,0.3c-13.3,0-26.5,0-39.8,0c-0.4-0.1-0.8-0.3-1.1-0.5c-5.2-3.1-10.4-6.1-15.6-9.2c-0.5-0.3-1.1-0.6-1.6-0.9
		C241.5,29.3,241.2,29.3,241.5,29.1z"/>
	<path class="st2" d="M134.5,40c-0.3-0.5-0.6-1.1-0.9-1.6c-1.5-2.5-3-5.1-4.5-7.6c-1.9-3.2-3.8-6.4-5.7-9.6c-0.9-1.5-1.8-3-2.7-4.6
		c-0.1-0.1-0.1-0.2-0.2-0.4c1.6,0.7,3.1,1.4,4.7,2.1c7.4,3.4,14.9,6.8,22.3,10.2c4.8,2.2,9.6,4.4,14.4,6.6c0.2,0.1,0.5,0.2,0.7,0.3
		c-0.1,0.1-0.3,0.2-0.4,0.3c-2.8,1.3-5.7,2.6-8.5,4c-0.1,0.1-0.3,0.1-0.4,0.2C147,40,140.8,40,134.5,40z"/>
	<path class="st2" d="M50.5,40c-0.6-0.8-1.2-1.7-1.8-2.5c-4.3-5.9-8.6-11.8-12.9-17.8c-1.9-2.6-3.8-5.3-5.8-7.9
		c-0.1-0.1-0.2-0.3-0.3-0.4c2,1.2,4,2.3,5.9,3.5c6.2,3.6,12.3,7.2,18.5,10.8c2,1.2,3.9,2.3,5.9,3.4c0.2,0.1,0.3,0.2,0.5,0.3
		c5.3,3.1,10.6,6.3,16,9.4c0.6,0.4,1.3,0.8,1.9,1.2C69.2,40,59.9,40,50.5,40z"/>
	<path class="st2" d="M241.5,29.1c0.2,0.1,0.3,0.2,0.5,0.3c5.3,3.1,10.6,6.3,16,9.4c0.6,0.4,1.3,0.8,1.9,1.2c-9.3,0-18.6,0-28,0
		c-0.6-0.8-1.1-1.6-1.7-2.4c-4.4-6.1-8.8-12.1-13.2-18.2c-1.9-2.6-3.8-5.2-5.6-7.8c-0.1-0.1-0.1-0.2-0.2-0.3c2,1.2,4,2.3,5.9,3.5
		c6.2,3.6,12.3,7.2,18.5,10.8C237.5,26.8,239.5,28,241.5,29.1z"/>
</g>
</svg>
